HIERARCHY
ROOT Hips
{
	OFFSET 0.000000 88.474243 0.000000
	CHANNELS 6 Xposition Yposition Zposition Zrotation Yrotation Xrotation 
	JOINT Hips_Spine
	{
		OFFSET 0.000000 0.000000 0.000000
		CHANNELS 3 Zrotation Yrotation Xrotation
		JOINT Spine
		{
			OFFSET 0.005100 8.711998 -0.691000
			CHANNELS 3 Zrotation Yrotation Xrotation
			JOINT Spine1
			{
				OFFSET -0.009200 8.660301 -1.275000
				CHANNELS 3 Zrotation Yrotation Xrotation
				JOINT Spine2
				{
					OFFSET 0.006300 9.852501 -1.857000
					CHANNELS 3 Zrotation Yrotation Xrotation
					JOINT Spine2_Neck
					{
						OFFSET 0.000000 0.000000 0.000000
						CHANNELS 3 Zrotation Yrotation Xrotation
						JOINT Neck
						{
							OFFSET 0.016300 11.420799 -0.263300
							CHANNELS 3 Zrotation Yrotation Xrotation
							End Site #name: Head
							{
								OFFSET -0.019200 9.262405 2.362500
							}
						}
					}
					JOINT Spine2_LeftShoulder
					{
						OFFSET 0.000000 0.000000 0.000000
						CHANNELS 3 Zrotation Yrotation Xrotation
						JOINT LeftShoulder
						{
							OFFSET 5.616900 6.732201 -0.345700
							CHANNELS 3 Zrotation Yrotation Xrotation
							JOINT LeftArm
							{
								OFFSET 10.664888 -0.183372 -2.440700
								CHANNELS 3 Zrotation Yrotation Xrotation
								JOINT LeftForeArm
								{
									OFFSET 27.459126 0.000000 0.000000
									CHANNELS 3 Zrotation Yrotation Xrotation
									End Site #name: LeftHand
									{
										OFFSET 21.306858 0.000000 0.000000
									}
								}
							}
						}
					}
					JOINT Spine2_RightShoulder
					{
						OFFSET 0.000000 0.000000 0.000000
						CHANNELS 3 Zrotation Yrotation Xrotation
						JOINT RightShoulder
						{
							OFFSET -5.580300 6.737503 -0.344400
							CHANNELS 3 Zrotation Yrotation Xrotation
							JOINT RightArm
							{
								OFFSET -10.679335 -0.188484 -2.383900
								CHANNELS 3 Zrotation Yrotation Xrotation
								JOINT RightForeArm
								{
									OFFSET -27.503529 0.000000 0.000000
									CHANNELS 3 Zrotation Yrotation Xrotation
									End Site #name: RightHand
									{
										OFFSET -21.306808 0.000000 0.000000
									}
								}
							}
						}
					}
				}
			}
		}
	}
	JOINT Hips_LeftUpLeg
	{
		OFFSET 0.000000 0.000000 0.000000
		CHANNELS 3 Zrotation Yrotation Xrotation
		JOINT LeftUpLeg
		{
			OFFSET 6.857700 -6.739601 0.312100
			CHANNELS 3 Zrotation Yrotation Xrotation
			JOINT LeftLeg
			{
				OFFSET -0.367590 -34.731552 -4.572400
				CHANNELS 3 Zrotation Yrotation Xrotation
				End Site #name: LeftFoot
				{
					OFFSET 0.367590 -34.656704 -6.067400
				}
			}
		}
	}
	JOINT Hips_RightUpLeg
	{
		OFFSET 0.000000 0.000000 0.000000
		CHANNELS 3 Zrotation Yrotation Xrotation
		JOINT RightUpLeg
		{
			OFFSET -6.876100 -6.733299 0.301000
			CHANNELS 3 Zrotation Yrotation Xrotation
			JOINT RightLeg
			{
				OFFSET 0.347353 -34.795158 -4.515900
				CHANNELS 3 Zrotation Yrotation Xrotation
				End Site #name: RightFoot
				{
					OFFSET -0.347353 -34.589367 -6.070300
				}
			}
		}
	}
}
MOTION
Frames: 15
Frame Time: 0.041667
0.159452 0.054406 0.001231 0.245760 21.016161 -6.649453 0.000000 0.000000 0.000000 -1.515374 -0.477096 2.008593 -0.865271 -0.848846 1.480085 0.000000 0.000000 0.000000 -0.840784 -0.531564 0.162335 3.373451 -0.007593 -4.954519 -0.296407 -1.351586 -0.857907 -18.765814 -6.114660 1.346989 -43.236655 -0.105262 14.266156 0.556739 -20.739145 4.164464 -1.007271 -0.486738 1.185274 16.344710 10.917513 3.889131 57.542164 -3.344584 -5.131340 -0.258232 50.006335 0.681636 0.000000 0.000000 0.000000 -7.220112 14.884791 -4.665512 1.025493 2.330898 20.900210 0.000000 0.000000 0.000000 -3.493333 4.114716 -7.325556 2.969639 0.461574 -0.161553 
0.632660 -0.007882 0.149886 1.800655 23.978452 -7.226953 0.000000 0.000000 0.000000 -4.234021 -1.327104 0.905222 -0.642074 -0.643088 0.813505 0.000000 0.000000 0.000000 -1.142926 -0.610685 -0.491277 4.251242 -1.410069 -3.868020 -1.021358 -0.946333 -1.343648 -24.158696 -3.293273 -0.029386 -40.064750 -0.963633 13.503560 -0.442660 -14.307580 1.617599 -1.118942 -0.571013 0.427648 17.051853 8.295118 2.523613 58.776959 -0.375080 -1.873764 -0.402941 45.370345 -0.585846 0.000000 0.000000 -0.000000 -9.340629 12.937024 -2.939290 -0.570157 3.266267 20.094508 0.000000 0.000000 0.000000 -6.881606 3.789921 -6.441677 3.119271 0.902048 1.229757 
0.929645 -0.032761 0.176456 2.877828 24.817984 -7.125719 -0.000000 0.000000 0.000000 -5.130861 -2.041358 1.102390 -0.636124 -0.476854 0.104134 0.000000 0.000000 0.000000 -0.777557 -0.925588 -0.843406 4.338400 -1.834535 -4.315928 -1.101527 -1.061462 -1.767450 -27.763950 -2.572353 0.573764 -39.509504 4.986710 8.094361 -0.663486 -15.990753 1.417140 -1.006168 -0.694581 0.119227 16.434030 7.971731 2.475335 57.773924 2.350055 0.321357 -0.230915 38.636729 -0.496107 0.000000 0.000000 -0.000000 -10.964524 11.970329 -2.042804 -1.204064 3.839089 19.331033 0.000000 0.000000 0.000000 -8.806527 2.335798 -7.894196 2.816904 -0.049953 4.830473 
1.244591 -0.056021 0.145275 3.367728 24.229591 -6.614137 -0.000000 0.000000 -0.000000 -5.322632 -2.202687 1.731470 -0.652295 -0.520454 -0.124796 0.000000 0.000000 0.000000 -0.568122 -1.039116 -0.826336 4.110099 -2.700873 -3.278890 -1.027822 -1.148924 -1.834219 -29.811052 -2.516734 0.960175 -37.818698 5.857880 7.827711 -0.497896 -15.867732 2.467660 -0.866102 -0.713170 0.153376 15.487564 8.016184 2.397699 57.349526 6.019983 0.184021 -0.041901 39.017972 -0.445793 0.000000 0.000000 -0.000000 -12.032792 11.763647 -2.162422 -1.274190 4.266446 18.764378 0.000000 0.000000 0.000000 -9.955836 0.758493 -10.178870 2.418257 -0.005730 9.418662 
1.607695 -0.071071 0.087411 3.593857 23.683321 -6.017569 -0.000000 0.000000 -0.000000 -5.536288 -1.970412 1.729773 -0.742123 -0.480697 -0.101697 0.000000 0.000000 0.000000 -0.602593 -1.056499 -0.760128 3.928273 -3.310789 -2.483423 -1.010689 -1.184834 -1.714196 -31.962698 -1.744170 1.266013 -35.900294 4.684131 9.501938 -0.131505 -12.759682 4.068159 -0.855487 -0.674044 0.252994 14.519152 7.942210 2.265933 57.950983 7.592034 -1.573712 0.055917 39.646101 -0.481225 0.000000 0.000000 -0.000000 -12.933914 11.453562 -2.592726 -1.255628 4.293043 18.607025 0.000000 0.000000 0.000000 -10.911279 -0.380665 -11.946445 2.521261 1.275238 12.874695 
1.997372 -0.077107 0.016022 3.700120 23.330482 -5.667769 -0.000000 0.000000 -0.000000 -5.820016 -1.829289 1.495878 -0.867583 -0.461936 0.032052 0.000000 0.000000 0.000000 -0.759963 -1.075170 -0.680943 3.730124 -3.704872 -1.968003 -1.081023 -1.199856 -1.663688 -33.631949 -0.807848 1.372257 -34.647035 3.333086 10.967955 0.252115 -8.612209 5.313009 -0.947816 -0.648220 0.349320 13.805434 7.703267 2.114770 58.887338 7.441619 -2.524099 0.164095 39.088682 -0.471786 0.000000 0.000000 -0.000000 -13.651346 11.319704 -2.956727 -1.169833 4.226377 18.737018 0.000000 0.000000 0.000000 -11.591777 -0.886077 -12.752756 3.251055 3.910321 14.661074 
2.395527 -0.073182 -0.052587 3.706805 23.241629 -5.533434 -0.000000 0.000000 -0.000000 -6.119404 -1.677608 1.218892 -1.028674 -0.407122 0.119877 0.000000 0.000000 0.000000 -0.953604 -1.076784 -0.583508 3.372186 -3.971459 -1.480105 -1.193143 -1.193242 -1.615159 -35.066646 -0.163474 1.484794 -33.664276 2.310420 12.014208 0.537312 -4.351225 5.958668 -1.132675 -0.629004 0.408849 13.335475 7.716664 2.034379 59.638406 6.609278 -3.970775 0.294025 38.375785 -0.442118 0.000000 0.000000 -0.000000 -14.169675 11.211067 -3.255704 -1.057001 4.176717 19.051966 0.000000 0.000000 0.000000 -12.077966 -1.240864 -12.922855 3.954198 6.510651 15.456487 
2.776045 -0.062718 -0.114084 3.662212 23.420839 -5.471121 -0.000000 0.000000 -0.000000 -6.414019 -1.493125 0.983065 -1.191815 -0.338072 0.158828 0.000000 0.000000 0.000000 -1.146533 -1.064479 -0.545642 2.981301 -3.991576 -1.121321 -1.328499 -1.175078 -1.591280 -36.208469 0.342158 1.502561 -32.947415 1.247700 12.791010 0.678978 -1.176606 6.079742 -1.353979 -0.575171 0.427296 13.132658 7.862506 2.007334 60.363279 5.369061 -5.256969 0.432839 37.897843 -0.413626 0.000000 0.000000 -0.000000 -14.523029 11.065097 -3.585825 -0.942042 4.140260 19.485327 0.000000 0.000000 0.000000 -12.433958 -1.645212 -12.740713 4.266483 8.159879 15.661545 
3.111780 -0.048243 -0.164548 3.556958 23.731571 -5.420783 -0.000000 0.000000 -0.000000 -6.757644 -1.260675 0.884984 -1.294031 -0.266042 0.169644 0.000000 0.000000 0.000000 -1.310198 -1.023892 -0.542355 2.607858 -3.946447 -0.846084 -1.446332 -1.133844 -1.600280 -36.996013 0.748779 1.518055 -32.408212 0.436670 13.188063 0.661329 0.594042 5.903807 -1.609429 -0.461307 0.442028 13.061332 7.957842 1.993116 60.893562 4.300122 -6.439805 0.538232 37.219764 -0.385919 0.000000 0.000000 -0.000000 -14.732451 10.907138 -3.959665 -0.799681 4.106463 20.012504 0.000000 0.000000 0.000000 -12.703482 -2.122328 -12.489664 4.220240 8.674167 15.642104 
3.398082 -0.030876 -0.206899 3.411142 24.000259 -5.389493 -0.000000 0.000000 -0.000000 -7.201408 -1.017509 0.841006 -1.361308 -0.181325 0.129954 0.000000 0.000000 0.000000 -1.433783 -0.963153 -0.573216 2.400711 -3.830517 -0.747430 -1.526959 -1.072854 -1.612335 -37.414663 1.011576 1.521899 -32.219095 0.014831 13.069655 0.608010 1.146882 5.653623 -1.807065 -0.338637 0.437725 13.012829 8.061757 1.976353 61.287282 3.574052 -6.909983 0.608821 36.643532 -0.360933 0.000000 0.000000 -0.000000 -14.822658 10.790791 -4.319218 -0.620047 4.110237 20.521930 0.000000 0.000000 0.000000 -12.871005 -2.620280 -12.286936 4.119458 8.823431 15.584286 
3.629469 -0.010004 -0.243787 3.221564 24.137100 -5.387305 -0.000000 0.000000 -0.000000 -7.555774 -0.783122 0.848108 -1.408711 -0.091475 0.071533 0.000000 0.000000 0.000000 -1.524466 -0.891865 -0.604903 2.377001 -3.710909 -0.839693 -1.584959 -0.987614 -1.619856 -37.438523 1.161933 1.560419 -32.294558 -0.148530 12.696036 0.544192 0.643918 5.509452 -1.958605 -0.208195 0.439209 12.952719 8.137364 1.951557 61.417903 3.405090 -6.819994 0.656013 36.018589 -0.355678 0.000000 0.000000 -0.000000 -14.811860 10.716280 -4.633599 -0.429198 4.177392 20.942535 0.000000 0.000000 0.000000 -12.925143 -3.099550 -12.132086 4.011551 8.880875 15.479135 
3.800170 0.014039 -0.278388 3.028709 24.030547 -5.387476 -0.000000 0.000000 -0.000000 -7.944108 -0.589758 0.969998 -1.444331 -0.004394 0.014233 0.000000 0.000000 0.000000 -1.590330 -0.820863 -0.635945 2.501127 -3.609796 -1.102759 -1.619905 -0.897275 -1.607548 -37.168759 1.210474 1.684330 -32.572407 -0.299217 12.273960 0.491523 -0.325126 5.415282 -2.061219 -0.087370 0.446304 12.927177 8.124238 1.914619 61.369973 3.614649 -6.553928 0.677599 35.776190 -0.355311 0.000000 0.000000 -0.000000 -14.733522 10.691708 -4.875911 -0.219711 4.342744 21.216998 0.000000 0.000000 0.000000 -12.880266 -3.524036 -12.015513 3.885140 8.895562 15.247041 
3.904116 0.040571 -0.313318 2.870114 23.698820 -5.370339 -0.000000 0.000000 -0.000000 -8.259057 -0.432047 1.129981 -1.457577 0.063424 -0.043015 0.000000 0.000000 0.000000 -1.628861 -0.755312 -0.658421 2.729618 -3.527346 -1.471553 -1.623123 -0.843784 -1.567393 -36.780351 1.250428 1.834450 -32.939684 -0.578709 12.047052 0.449437 -1.372518 5.363109 -2.114188 0.009738 0.444435 12.901684 8.016205 1.867907 61.188745 4.046331 -6.132390 0.681329 35.888585 -0.360350 0.000000 0.000000 -0.000000 -14.622419 10.698895 -5.040445 -0.018549 4.590063 21.324585 0.000000 0.000000 0.000000 -12.776927 -3.770591 -11.943055 3.750883 8.886708 14.881736 
3.946799 0.068898 -0.350423 2.748010 23.196997 -5.339614 -0.000000 0.000000 -0.000000 -8.472546 -0.348138 1.304095 -1.448142 0.108696 -0.117583 0.000000 0.000000 0.000000 -1.634237 -0.711295 -0.684673 3.001257 -3.477340 -1.817345 -1.606407 -0.805972 -1.530480 -36.323850 1.290820 2.024376 -33.368295 -0.902204 12.074022 0.417607 -2.359359 5.340841 -2.120398 0.068673 0.432654 12.952187 7.846027 1.814111 60.968733 4.480981 -5.571275 0.668857 36.259689 -0.362938 0.000000 0.000000 -0.000000 -14.495164 10.725380 -5.134661 0.152172 4.893475 21.292078 0.000000 0.000000 0.000000 -12.639747 -3.889225 -11.894529 3.583946 8.825258 14.376290 
3.933694 0.098429 -0.391030 2.657102 22.579536 -5.299926 -0.000000 0.000000 -0.000000 -8.567164 -0.345145 1.454636 -1.401689 0.133166 -0.227527 0.000000 0.000000 0.000000 -1.586384 -0.694260 -0.732277 3.273413 -3.449383 -2.057579 -1.567065 -0.785959 -1.512836 -35.834969 1.279898 2.263543 -33.797581 -1.117062 12.328225 0.387634 -3.198441 5.326136 -2.063638 0.088621 0.411297 13.069992 7.636237 1.761642 60.764773 4.890002 -4.870272 0.647610 36.879161 -0.359157 0.000000 0.000000 -0.000000 -14.347145 10.777304 -5.157131 0.288595 5.215887 21.153298 0.000000 0.000000 0.000000 -12.453514 -3.897865 -11.891214 3.414432 8.782547 13.814520 
